<svg viewBox="0 0 182 242" fill="none" xmlns="http://www.w3.org/2000/svg">
<path d="M110.307 0H30.25C22.2272 0 14.533 3.18704 8.86002 8.86002C3.18704 14.533 0 22.2272 0 30.25V211.75C0 219.773 3.18704 227.467 8.86002 233.14C14.533 238.813 22.2272 242 30.25 242H151.25C159.273 242 166.967 238.813 172.64 233.14C178.313 227.467 181.5 219.773 181.5 211.75V71.1934C181.499 67.1823 179.905 63.3358 177.068 60.5L121 4.43163C118.164 1.59494 114.318 0.000856641 110.307 0V0ZM113.438 52.9375V22.6875L158.812 68.0625H128.562C124.551 68.0625 120.704 66.469 117.868 63.6325C115.031 60.796 113.438 56.9489 113.438 52.9375ZM133.917 118.792L88.5418 164.167C87.8393 164.871 87.0047 165.43 86.086 165.811C85.1672 166.192 84.1822 166.389 83.1875 166.389C82.1928 166.389 81.2078 166.192 80.289 165.811C79.3703 165.43 78.5357 164.871 77.8332 164.167L55.1457 141.479C54.4426 140.776 53.8849 139.941 53.5043 139.023C53.1238 138.104 52.9279 137.119 52.9279 136.125C52.9279 135.131 53.1238 134.146 53.5043 133.227C53.8849 132.309 54.4426 131.474 55.1457 130.771C56.5658 129.351 58.4918 128.553 60.5 128.553C61.4944 128.553 62.479 128.749 63.3977 129.129C64.3164 129.51 65.1511 130.068 65.8543 130.771L83.1875 148.119L123.208 108.083C124.628 106.663 126.554 105.865 128.562 105.865C130.571 105.865 132.497 106.663 133.917 108.083C135.337 109.503 136.135 111.429 136.135 113.438C136.135 115.446 135.337 117.372 133.917 118.792V118.792Z" fill="#00940F"/>
</svg>
