<svg viewBox="0 0 182 182" fill="none" xmlns="http://www.w3.org/2000/svg">
<path d="M91 0C40.7422 0 0 40.7422 0 91C0 141.258 40.7422 182 91 182C141.258 182 182 141.258 182 91C182 40.7422 141.258 0 91 0ZM146.767 146.767C132.939 160.554 114.473 168.699 94.9682 169.614C75.4631 170.53 56.3156 164.151 41.2569 151.72C26.1981 139.289 16.3067 121.697 13.51 102.372C10.7134 83.0468 15.2118 63.3724 26.1288 47.1826C37.0458 30.9928 53.5993 19.4474 72.5638 14.7959C91.5284 10.1445 111.545 12.7202 128.715 22.0212C145.884 31.3223 158.975 46.6823 165.438 65.1085C171.901 83.5346 171.272 103.707 163.674 121.695C159.714 131.068 153.972 139.582 146.767 146.767Z" fill="#BA1010"/>
<path d="M57.6333 115.267H124.367V127.4H57.6333V115.267Z" fill="#BA1010"/>
<path d="M73.7971 80.3994L64.6812 72.2962L72.784 63.1807L63.7158 55.1196L55.6127 64.2355L46.4971 56.1328L38.436 65.2009L47.552 73.3041L39.4492 82.4196L48.5173 90.4807L56.6205 81.3648L65.736 89.4675L73.7971 80.3994V80.3994Z" fill="#BA1010"/>
<path d="M139.517 63.1807L130.449 55.1196L122.346 64.2355L113.231 56.1328L105.169 65.2009L114.285 73.3041L106.183 82.4196L115.251 90.4807L123.354 81.3648L132.469 89.4675L140.531 80.3994L131.415 72.2962L139.517 63.1807V63.1807Z" fill="#BA1010"/>
</svg>
